<svg width="1860" height="259" viewBox="0 0 1860 259" fill="none" xmlns="http://www.w3.org/2000/svg">
<path d="M183.124 4.93408H113.926L65.6961 100.982H64.9874V4.93408H0V255.195H64.9874L65.4043 138.197L116.719 255.195H190.794L120.221 114.279L183.124 4.93408Z" fill="white"/>
<path d="M1407.51 4.93408H1338.31L1290.12 100.982H1289.41V4.93408H1224.42V255.195H1289.41L1289.83 138.197L1341.1 255.195H1415.18L1344.6 114.279L1407.51 4.93408Z" fill="white"/>
<path d="M343.862 29.981C336.859 19.5692 327.688 12.0008 316.267 7.19213C304.845 2.42526 290.88 0 274.331 0C257.782 0 243.817 2.38344 232.396 7.19213C220.974 12.0008 211.761 19.5692 204.8 29.981C197.797 40.3929 192.795 53.8155 189.793 70.2904C186.75 86.7654 185.25 106.669 185.25 130.044C185.25 153.418 186.75 173.322 189.793 189.797C192.836 206.272 197.838 219.694 204.8 230.106C211.803 240.518 220.974 247.919 232.396 252.351C243.817 256.784 257.782 259 274.331 259C290.88 259 304.845 256.784 316.267 252.351C327.688 247.919 336.901 240.518 343.862 230.106C350.865 219.694 355.868 206.272 358.869 189.797C361.912 173.322 363.413 153.418 363.413 130.044C363.413 106.669 361.912 86.7654 358.869 70.2904C355.868 53.8155 350.865 40.3929 343.862 29.981ZM295.632 171.942C295.174 183.023 294.173 191.846 292.673 198.41C291.172 204.975 288.963 209.533 286.045 212.084C283.127 214.676 279.25 215.931 274.331 215.931C269.412 215.931 265.535 214.635 262.618 212.084C259.7 209.533 257.49 204.975 255.99 198.41C254.489 191.887 253.488 183.065 253.03 171.942C252.571 160.861 252.321 146.895 252.321 130.044C252.321 113.192 252.571 99.2679 253.03 88.1452C253.488 77.0644 254.489 68.2415 255.99 61.6766C257.49 55.1535 259.7 50.5958 262.618 48.0033C265.535 45.4526 269.412 44.1563 274.331 44.1563C279.25 44.1563 283.127 45.4526 286.045 48.0033C288.963 50.5958 291.172 55.1535 292.673 61.6766C294.173 68.2415 295.174 77.0644 295.632 88.1452C296.091 99.2261 296.341 113.192 296.341 130.044C296.341 146.895 296.091 160.861 295.632 171.942Z" fill="white"/>
<path d="M548.788 42.9436C543.535 31.3609 535.698 22.1617 525.194 15.2623C514.689 8.36289 500.016 4.93408 481.174 4.93408H386.84V255.195H481.174C500.058 255.195 514.731 251.766 525.194 244.867C535.657 237.967 543.535 228.726 548.788 217.185C554.04 205.603 557.208 192.306 558.417 177.211C559.584 162.157 560.168 146.435 560.168 130.085C560.168 113.736 559.584 98.0135 558.417 82.9602C557.25 67.8652 554.04 54.5262 548.788 42.9436ZM492.179 170.729C491.595 181.016 490.303 188.96 488.344 194.564C486.343 200.167 483.508 203.846 479.798 205.603C476.088 207.359 471.044 208.237 464.792 208.237H451.869V51.9337H464.792C471.086 51.9337 476.088 52.8118 479.798 54.5681C483.508 56.3243 486.385 60.004 488.344 65.6072C490.303 71.2104 491.595 79.1551 492.179 89.4415C492.762 99.7279 493.054 113.276 493.054 130.085C493.054 146.895 492.762 160.443 492.179 170.729Z" fill="white"/>
<path d="M650.041 152.122H723.449V100.982H650.041V58.2059H732.87V4.93408H585.054V255.195H735.996V201.923H650.041V152.122Z" fill="white"/>
<path d="M996.321 4.93408H903.363L877.185 153.209H876.476L850.256 4.93408H757.339V255.195H818.117V68.7433H818.825L853.424 255.195H900.237L934.835 68.7433H935.502V255.195H996.321V4.93408Z" fill="white"/>
<path d="M1149.81 4.93408H1068.06L1008.33 255.195H1076.44L1084.86 203.01H1133.01L1141.43 255.195H1210.63L1149.81 4.93408ZM1093.11 151.829L1108.58 56.1152H1109.29L1124.75 151.829H1093.11Z" fill="white"/>
<path d="M1492 152.122H1565.41V100.982H1492V58.2059H1574.79V4.93408H1427.01V255.195H1577.96V201.923H1492V152.122Z" fill="white"/>
<path d="M1771.88 71.5449C1771.96 61.9694 1770.67 53.1047 1768.21 44.909C1765.75 36.7133 1761.79 29.6466 1756.33 23.709C1750.87 17.7295 1743.74 13.1299 1735.03 9.86832C1726.27 6.60677 1715.77 4.97607 1703.39 4.97607H1601.72V255.237H1666.71V155.007H1678.29L1721.77 254.4H1795.85L1737.82 144.135C1765.5 130.713 1771.71 92.5359 1771.88 71.5449ZM1666.71 51.8921H1679.29C1689.09 51.8921 1696.13 54.1083 1700.43 58.5406C1704.72 62.973 1706.89 70.4578 1706.89 80.9532C1706.89 89.8179 1704.68 97.0101 1700.26 102.53C1695.84 108.007 1688.96 110.767 1679.63 110.767H1666.71V51.8921Z" fill="white"/>
<path d="M1833.03 42.6091C1833.9 42.191 1834.74 41.6055 1835.45 40.7693C1836.2 39.933 1836.82 38.8876 1837.32 37.6332C1837.82 36.3369 1838.07 34.7898 1838.07 32.9499C1838.07 28.1412 1836.53 24.8378 1833.45 23.0816C1830.36 21.3254 1826.15 20.4473 1820.73 20.4473H1808.06V58.8749H1817.4V44.3235H1820.65L1828.78 58.8749H1839.12L1830.49 43.3199C1831.32 43.2363 1832.15 43.0273 1833.03 42.6091ZM1826.65 35.7097C1825.65 36.4624 1824.23 36.8387 1822.4 36.8387H1817.44V27.974H1822.4C1824.23 27.974 1825.65 28.3085 1826.65 29.0193C1827.65 29.7302 1828.15 30.8173 1828.15 32.239C1828.15 33.7862 1827.65 34.9571 1826.65 35.7097Z" fill="white"/>
<path d="M1849 14.3005C1845.58 10.8717 1841.62 8.19557 1837.03 6.23028C1832.49 4.26499 1827.57 3.26147 1822.4 3.26147C1817.23 3.26147 1812.31 4.26499 1807.77 6.23028C1803.22 8.19557 1799.22 10.8717 1795.8 14.3005C1792.39 17.7293 1789.72 21.7436 1787.76 26.3014C1785.8 30.8592 1784.8 35.7932 1784.8 40.9782C1784.8 46.2051 1785.76 51.0974 1787.76 55.6552C1789.72 60.213 1792.39 64.2272 1795.8 67.6142C1799.22 71.0012 1803.18 73.6356 1807.77 75.5591C1812.31 77.4407 1817.19 78.4024 1822.4 78.4024C1827.61 78.4024 1832.49 77.4407 1837.03 75.5591C1841.58 73.6774 1845.58 71.0012 1849 67.6142C1852.41 64.2272 1855.08 60.2548 1857.04 55.6552C1859 51.0974 1860 46.2051 1860 40.9782C1860 35.7514 1859.04 30.8592 1857.04 26.3014C1855.08 21.7018 1852.41 17.7293 1849 14.3005ZM1840.53 60.7985C1836.2 65.2727 1830.15 67.4887 1822.4 67.4887C1814.65 67.4887 1808.6 65.2308 1804.27 60.7985C1799.93 56.3661 1797.76 49.7175 1797.76 40.9782C1797.76 32.239 1799.93 25.6323 1804.27 21.1581C1808.6 16.684 1814.65 14.4678 1822.4 14.4678C1830.15 14.4678 1836.2 16.684 1840.53 21.1581C1844.87 25.6323 1847.04 32.239 1847.04 40.9782C1847.04 49.7175 1844.83 56.3243 1840.53 60.7985Z" fill="white"/>
</svg>
